<svg version="1.2" xmlns="http://www.w3.org/2000/svg" viewBox="0 0 1024 1024" width="1024" height="1024">
	<style>
		.s0 { fill: #6d50c7 } 
	</style>
	<g id="Background">
		<path id="Path 1" class="s0" d="m468.5 190.14c-4.95 0.47-14.63 1.77-21.5 2.88-6.88 1.11-18.69 3.59-26.25 5.5-7.56 1.91-18.81 5.31-25 7.55-6.19 2.24-18.45 7.61-27.25 11.93-8.8 4.33-21.4 11.42-28 15.75-6.6 4.34-16.73 11.65-22.5 16.24-5.77 4.59-16.15 14.01-23.05 20.93-6.9 6.92-15.6 16.41-19.33 21.08-3.73 4.68-10.54 14.13-15.14 21-4.59 6.88-11.29 18.13-14.87 25-3.59 6.88-8.59 17.45-11.12 23.5-2.53 6.05-6.39 16.63-8.57 23.5-2.19 6.88-5.3 19.02-6.91 27-1.62 7.98-3.5 18.77-4.19 24-0.69 5.23-1.23 19.4-1.22 31.5 0.02 15.15 0.57 25.89 1.75 34.5 0.95 6.88 2.87 17.67 4.28 24 1.4 6.33 4.7 18.02 7.32 26 2.63 7.98 7.21 19.9 10.19 26.5 2.97 6.6 8.9 17.85 13.16 25 4.27 7.15 11.27 17.73 15.57 23.5 4.3 5.77 12.95 15.85 19.22 22.39 6.28 6.53 15.46 15.27 20.41 19.41 4.95 4.14 13.5 10.52 19 14.18 5.5 3.66 10.68 7.01 11.5 7.43 0.82 0.43-0.52-0.93-3-3.01-2.48-2.08-10.51-9.66-17.85-16.84-7.34-7.19-17.17-17.79-21.84-23.56-4.67-5.77-11.94-15.67-16.15-22-4.21-6.33-11.29-18.7-15.74-27.5-4.44-8.8-9.92-20.73-12.17-26.5-2.26-5.77-5.43-15-7.06-20.5-1.64-5.5-4.13-15.17-5.54-21.5-1.42-6.33-3.29-16.9-4.15-23.5-0.87-6.6-1.85-19.42-2.19-28.5-0.36-10.03-0.13-21.79 0.61-30 0.66-7.42 2.51-20.02 4.09-28 1.59-7.98 4.91-20.8 7.38-28.5 2.48-7.7 6.57-18.95 9.1-25 2.53-6.05 7.31-16.17 10.62-22.5 3.32-6.32 9.79-17.12 14.38-24 4.59-6.87 11.4-16.32 15.13-21 3.73-4.67 12.21-13.93 18.83-20.56 6.63-6.63 16.55-15.67 22.05-20.08 5.5-4.42 14.27-10.98 19.5-14.59 5.23-3.6 14.9-9.64 21.5-13.42 6.6-3.78 17.63-9.42 24.5-12.52 6.88-3.11 17.45-7.51 23.5-9.79 6.05-2.28 16.4-5.71 23-7.64 6.6-1.92 18.07-4.6 25.5-5.95 7.43-1.35 18-2.84 23.5-3.32l10-0.86c-20.15 0-30.05 0.39-35 0.87zm190.5 37.11c0.27 0.32 3.88 2.8 8 5.5 4.13 2.71 10.88 7.62 15 10.92 4.13 3.3 12.23 10.34 18 15.65 5.77 5.31 14.69 14.28 19.82 19.92 5.13 5.64 13.07 15.21 17.64 21.26 4.58 6.05 11.32 15.73 14.99 21.5 3.66 5.77 9.29 15.68 12.52 22 3.22 6.32 7.87 16.45 10.34 22.5 2.46 6.05 6.06 15.95 7.99 22 1.94 6.05 4.67 16.18 6.08 22.5 1.41 6.32 3.3 17.57 4.21 25 1.29 10.61 1.53 18.75 1.11 38-0.39 17.95-1.09 27.98-2.63 37.5-1.16 7.15-3.71 19.52-5.68 27.5-1.96 7.98-5.64 20.13-8.17 27-2.53 6.88-8.08 19.48-12.33 28-4.25 8.52-11.7 21.43-16.56 28.69-4.86 7.25-12.66 17.78-17.33 23.4-4.67 5.61-14.38 15.88-21.57 22.81-7.18 6.93-17.76 16.19-23.5 20.59-5.73 4.39-15.6 11.3-21.93 15.36-6.33 4.05-19.6 11.32-29.5 16.15-9.9 4.82-23.4 10.64-30 12.91-6.6 2.28-16.73 5.22-22.5 6.54-5.77 1.33-9.49 2.44-8.25 2.48 1.24 0.04 8.21-1.1 15.5-2.52 7.29-1.42 18.42-4.09 24.75-5.92 6.33-1.83 16.67-5.42 23-7.97 6.33-2.55 17.8-7.9 25.5-11.89 7.7-3.98 18.73-10.36 24.5-14.17 5.77-3.81 15-10.5 20.5-14.88 5.5-4.38 15.12-12.94 21.37-19.02 6.26-6.08 15.26-15.77 20-21.53 4.75-5.76 12.25-15.89 16.67-22.5 4.42-6.62 11.22-18.33 15.12-26.03 3.9-7.7 8.79-18.27 10.86-23.5 2.07-5.23 5.46-15.12 7.53-22 2.07-6.87 4.89-18.35 6.27-25.5 1.38-7.15 3.1-17.27 3.83-22.5 0.8-5.83 1.3-19.16 1.28-34.5-0.02-18.5-0.49-28.12-1.79-37-0.97-6.6-3.09-17.62-4.72-24.5-1.62-6.87-4.36-16.77-6.08-22-1.72-5.23-5.58-15.12-8.56-22-2.99-6.87-7.95-17-11.03-22.5-3.08-5.5-8.16-13.82-11.29-18.5-3.13-4.67-8.98-12.77-12.99-18-4.01-5.23-13.86-16.05-21.88-24.04-8.15-8.13-19.89-18.53-26.59-23.56-6.6-4.95-16.95-11.94-23-15.53-6.05-3.59-14.15-8.25-18-10.37-3.85-2.11-6.77-3.57-6.5-3.25zm-174.5 23.85c-4.4 0.53-13.63 2.1-20.5 3.48-6.88 1.38-19.25 4.75-27.5 7.5-8.25 2.74-21.3 8.08-29 11.87-7.7 3.78-18.73 9.98-24.5 13.78-5.77 3.79-14.55 10.28-19.5 14.41-4.95 4.14-13.02 11.76-17.94 16.94-4.92 5.18-12.13 13.69-16.02 18.92-3.9 5.23-9.53 13.55-12.51 18.5-2.99 4.95-7.78 13.95-10.64 20-2.86 6.05-6.77 15.5-8.68 21-1.91 5.5-4.64 14.73-6.06 20.5-1.43 5.77-3.36 15.68-4.31 22-1.11 7.43-1.73 17.69-1.74 29-0.01 9.63 0.58 21.77 1.31 27 0.73 5.23 2.65 14.9 4.27 21.5 1.62 6.6 4.54 16.27 6.5 21.5 1.95 5.23 6.4 15.13 9.88 22 3.48 6.88 8.88 16.33 12.01 21 3.13 4.67 8.29 11.65 11.47 15.5 3.17 3.85 8.13 9.25 11 12l5.23 5c-7.46-9.3-11.98-15.6-14.85-20-2.87-4.4-7.7-12.73-10.73-18.5-3.03-5.77-7.62-15.9-10.19-22.5-2.58-6.6-5.96-16.95-7.52-23-1.55-6.05-3.59-15.95-4.53-22-1.12-7.25-1.71-17.13-1.73-29-0.02-9.9 0.51-21.82 1.17-26.5 0.66-4.68 2.32-13.23 3.68-19 1.36-5.77 3.65-14.1 5.08-18.5 1.43-4.4 4.41-12.27 6.61-17.5 2.2-5.23 6.25-13.55 9-18.5 2.75-4.95 7.25-12.37 10-16.5 2.76-4.12 7.96-11.32 11.56-16 3.61-4.68 11.54-13.46 17.62-19.52 6.08-6.06 15.33-14.21 20.56-18.11 5.23-3.9 14.45-10.06 20.5-13.69 6.05-3.63 16.06-8.87 22.25-11.64 6.19-2.77 16.54-6.8 23-8.96 6.46-2.15 17.15-5.05 23.75-6.44 6.6-1.38 18.52-3.28 26.5-4.2 11.1-1.29 19.07-1.55 34-1.11 10.73 0.32 24.23 1.3 30 2.18 5.77 0.88 15.67 2.74 22 4.14 6.33 1.39 17.8 4.66 25.5 7.25 7.7 2.6 14.9 5.1 16 5.56 1.41 0.59 1.7 0.52 1-0.24-0.55-0.59-6.17-3.77-12.5-7.08-6.33-3.3-16.23-7.87-22-10.16-5.77-2.29-16.35-5.66-23.5-7.49-7.15-1.84-17.73-4.08-23.5-4.98-6.47-1.02-18.76-1.79-32-2.02-11.82-0.2-25.1 0.07-29.5 0.61zm179 58.96c5.5 5.76 12.69 14.07 15.98 18.46 3.29 4.39 9.05 12.93 12.81 18.98 3.76 6.05 9.7 16.85 13.21 24 3.52 7.15 8.16 18.18 10.33 24.5 2.17 6.32 5.09 16.68 6.5 23 1.41 6.32 3.03 15.89 3.61 21.25 0.59 5.36 1.06 15.6 1.06 22.75 0 7.15-0.48 17.39-1.06 22.75-0.58 5.36-1.96 14.25-3.07 19.75-1.11 5.5-3.61 14.95-5.56 21-1.95 6.05-5.87 16.4-8.71 23-2.85 6.6-7.98 16.73-11.41 22.5-3.44 5.77-9.39 14.77-13.24 20-3.84 5.23-11.14 13.96-16.22 19.41-5.08 5.46-13.5 13.48-18.73 17.82-5.23 4.35-14 10.91-19.5 14.59-5.5 3.67-17.2 10.28-26 14.69-8.8 4.4-20.38 9.58-25.74 11.5-5.36 1.92-9.74 3.72-9.74 3.99 0 0.27 2.81 0.17 6.24-0.24 3.43-0.41 10.74-1.69 16.24-2.86 5.5-1.16 13.83-3.46 18.5-5.1 4.67-1.64 12.77-5.06 18-7.61 5.23-2.55 13.33-7.16 18-10.25 4.67-3.08 12.1-8.46 16.5-11.94 4.4-3.48 12.5-10.89 18-16.46 5.5-5.56 13.43-14.6 17.63-20.08 4.19-5.48 9.95-13.79 12.79-18.46 2.85-4.67 7.36-13 10.04-18.5 2.68-5.5 6.9-16.08 9.38-23.5 2.48-7.42 5.41-18.23 6.51-24 1.11-5.77 2.55-16.12 3.21-23 0.75-7.73 0.98-19.17 0.61-30-0.33-9.62-1.31-22-2.18-27.5-0.87-5.5-2.72-14.5-4.11-20-1.4-5.5-4.13-14.27-6.09-19.5-1.95-5.23-5.91-14.23-8.81-20-2.9-5.77-7.94-14.55-11.21-19.5-3.26-4.95-8.65-12.37-11.97-16.5-3.32-4.12-11.2-12.45-17.5-18.5-6.3-6.05-14.35-13.23-17.88-15.95-6.36-4.91-6.32-4.86 3.58 5.51zm-199 11.28c-1.1 0.75-2.27 2.44-2.6 3.76-0.33 1.32 0 5.33 0.73 8.9 0.87 4.23 1.29 13.31 1.22 26-0.06 10.73-0.39 22.87-0.73 26.99-0.5 6.09-0.95 7.54-2.37 7.75-0.96 0.14-4.11-1.39-7-3.41-2.89-2.02-13.51-10.23-23.6-18.25-10.09-8.02-20.89-16.28-24-18.36-3.11-2.08-6.57-3.77-7.7-3.75-1.13 0.02-2.6 0.59-3.27 1.28-0.67 0.69-1.22 2.15-1.23 3.25-0.01 1.1 0.83 3.13 1.86 4.5 1.03 1.38 7.46 7.28 14.28 13.13 6.83 5.84 17.84 16.19 24.47 23 6.63 6.8 13.91 14.85 16.18 17.87 2.28 3.02 5.4 8.2 6.95 11.5 2.34 5.01 2.81 7.32 2.81 14 0 7.03-0.37 8.66-3 13.38-1.65 2.97-4.35 6.51-6 7.88-1.65 1.37-5.02 3.52-7.5 4.78-2.48 1.25-7.65 2.84-11.5 3.52-5.57 0.98-11.82 0.97-30.5-0.03-18.34-0.97-25.69-0.99-33.5-0.06-5.56 0.66-11.33 1.95-13 2.91-1.82 1.04-3.12 2.68-3.3 4.17-0.18 1.51 0.59 3.36 2 4.82 2.14 2.2 2.72 2.31 8.3 1.5 3.3-0.48 12.34-0.87 20.09-0.87 11.11 0 14.46 0.32 15.8 1.5 0.93 0.82 1.69 1.73 1.69 2-0.01 0.27-2.81 3.43-6.23 7-3.42 3.57-7.95 9.2-10.08 12.5-2.12 3.3-4.52 8.25-5.33 11-0.8 2.75-1.46 6.24-1.45 7.75 0.01 1.51 0.46 3.65 1.01 4.75 0.55 1.1 1.9 2 3 2 1.1 0 2.9-0.45 4-1 1.1-0.55 3.35-3.7 5-7 1.65-3.3 5.87-9.04 9.39-12.75 3.51-3.71 9.25-8.45 12.75-10.53 3.5-2.08 9.51-4.73 13.36-5.89 5.32-1.61 8.8-2.01 14.5-1.69 5.79 0.33 9.04 1.16 14.25 3.64 4.93 2.35 7.56 4.37 9.76 7.47 1.65 2.34 3.51 6.5 4.12 9.25 0.62 2.75 0.83 7.25 0.46 10-0.42 3.19-3.54 10.98-8.61 21.5-4.98 10.33-8.52 19.12-9.45 23.5-0.82 3.85-1.5 9.02-1.5 11.5 0 2.48 0.67 7.31 1.48 10.75 0.82 3.44 2.78 8.84 4.35 12 1.57 3.16 5.51 8.63 8.75 12.15 3.24 3.52 13.74 12.97 23.34 21 9.6 8.03 19.21 16.85 21.36 19.6 2.16 2.75 4.87 6.8 6.04 9 1.65 3.11 2.11 5.78 2.11 12 0 6.68-0.43 8.82-2.61 13-1.44 2.75-4.57 7.48-6.97 10.5-2.39 3.02-7.45 8.88-11.25 13-3.8 4.13-8.92 10.2-11.38 13.5-2.45 3.3-5.77 8.59-7.36 11.75-1.59 3.16-2.9 6.99-2.91 8.5-0.01 1.51 0.56 3.32 1.25 4.02 0.7 0.69 2.06 1.26 3.02 1.25 0.96-0.01 2.67-1.26 3.79-2.77 1.13-1.51 3.94-5.65 6.25-9.19 2.46-3.76 8.38-10.22 14.21-15.5 5.5-4.97 13.07-12.2 16.81-16.05 4.35-4.48 8.07-9.54 10.29-14.01 1.91-3.85 4-9.92 4.63-13.5 0.87-4.92 0.87-8.08-0.01-13-0.64-3.58-2.87-9.83-4.94-13.89-2.28-4.45-6.6-10.42-10.86-15-3.9-4.19-13.35-12.85-21-19.26-7.66-6.41-15.58-13.83-17.6-16.5-2.02-2.67-4.9-7.55-6.4-10.85-1.9-4.22-2.85-8.23-3.17-13.5-0.3-4.91 0.1-9.84 1.15-14.25 0.88-3.71 2.84-9.3 4.35-12.42 1.51-3.12 4.77-7.67 7.25-10.1 2.48-2.43 6.75-5.5 9.5-6.82 2.75-1.32 7.48-2.84 10.5-3.37 3.02-0.52 8.87-1.35 13-1.84 4.84-0.56 9.81-1.97 14-3.96 3.58-1.69 8.71-5.03 11.41-7.41 2.7-2.38 7.02-7.48 9.6-11.33 2.58-3.85 6.44-8.33 8.59-9.95 2.14-1.62 5.7-3.74 7.9-4.7 2.2-0.96 8.73-2.45 14.5-3.31 5.77-0.86 13.65-2.5 17.5-3.65 3.85-1.16 8.35-2.79 10-3.63 1.65-0.84 8.4-5.01 15-9.27 6.6-4.26 15.6-9.53 20-11.72 4.4-2.19 11.15-5.03 15-6.31 3.85-1.27 8.01-3.36 9.25-4.64 1.24-1.28 2.25-3.44 2.25-4.82 0-1.55-1.04-3.29-2.75-4.59-2.07-1.57-3.62-1.95-6.25-1.51-1.92 0.31-14.75 6.22-28.5 13.11-18.46 9.26-27.23 13.09-33.5 14.64-6.52 1.62-10.48 2-17 1.63-6.25-0.35-10.08-1.17-14.5-3.12-3.3-1.46-7.67-4.34-9.7-6.41-2.04-2.06-4.67-6-5.86-8.75-1.44-3.36-2.13-6.97-2.1-11 0.03-3.3 0.79-8.02 1.68-10.5 0.9-2.48 3.28-6.94 5.3-9.92 2.03-2.98 5.93-7.4 8.68-9.82 3.06-2.69 11.03-7.37 20.5-12.03 8.52-4.2 17.24-9.23 19.37-11.18 2.13-1.95 4.49-4.79 5.25-6.3 0.76-1.51 1.38-3.65 1.38-4.75 0-1.1-0.9-2.9-2-4-1.1-1.1-2.67-2-3.5-2-0.83 0-4.6 2.81-8.38 6.25-3.78 3.44-9.97 7.76-13.75 9.61-3.78 1.84-8.61 3.42-10.73 3.5-2.61 0.09-4.23-0.4-5-1.53-0.92-1.35 0.05-4.32 5.05-15.5 3.4-7.61 7.56-17.32 9.25-21.58 1.68-4.26 3.4-9.74 3.81-12.18 0.69-4.09 0.56-4.52-1.75-5.6-2.01-0.94-3.13-0.86-5.75 0.43-1.84 0.9-4.71 3.88-6.61 6.85-1.85 2.89-4.5 7.5-5.89 10.25-1.38 2.75-6.89 15.13-12.23 27.5-5.35 12.38-11.14 25.18-12.87 28.45-1.73 3.27-5.4 8.39-8.15 11.37-2.75 2.99-7.02 6.61-9.5 8.06-3.77 2.19-5.72 2.62-12 2.62-6.47 0-8.23-0.41-12.86-3-2.95-1.65-7.57-5.36-10.25-8.25-2.69-2.89-6-7.61-7.35-10.5-1.36-2.89-2.87-8.18-3.36-11.75-0.49-3.57-0.71-8.3-0.49-10.5 0.22-2.2 1.14-8.73 2.04-14.5 0.89-5.77 1.63-15 1.62-20.5-0.01-8.41-0.39-10.86-2.43-15.4-1.33-2.98-3.88-6.69-5.67-8.25-1.79-1.57-4.26-2.85-5.5-2.86-1.24 0-3.15 0.61-4.25 1.35z"/>
	</g>
</svg>